<?xml version="1.0" encoding="UTF-8" standalone="no"?>
<svg
   xmlns:dc="http://purl.org/dc/elements/1.1/"
   xmlns:cc="http://creativecommons.org/ns#"
   xmlns:rdf="http://www.w3.org/1999/02/22-rdf-syntax-ns#"
   xmlns:svg="http://www.w3.org/2000/svg"
   xmlns="http://www.w3.org/2000/svg"
   xmlns:sodipodi="http://sodipodi.sourceforge.net/DTD/sodipodi-0.dtd"
   xmlns:inkscape="http://www.inkscape.org/namespaces/inkscape"
   contentScriptType="text/ecmascript"
   width="200"
   zoomAndPan="magnify"
   contentStyleType="text/css"
   viewBox="0 0 200 199.99999"
   height="200"
   preserveAspectRatio="xMidYMid meet"
   version="1.0"
   id="svg71"
   sodipodi:docname="Favicon Vector ThickHandle WhiteBG.svg"
   inkscape:version="1.0.2 (e86c870879, 2021-01-15)"
   inkscape:export-filename="/home/user/coinsearchr/logos/48x48.png"
   inkscape:export-xdpi="23.040001"
   inkscape:export-ydpi="23.040001">
  <metadata
     id="metadata75">
    <rdf:RDF>
      <cc:Work
         rdf:about="">
        <dc:format>image/svg+xml</dc:format>
        <dc:type
           rdf:resource="http://purl.org/dc/dcmitype/StillImage" />
        <dc:title />
      </cc:Work>
    </rdf:RDF>
  </metadata>
  <sodipodi:namedview
     pagecolor="#ffffff"
     bordercolor="#666666"
     borderopacity="1"
     objecttolerance="10"
     gridtolerance="10"
     guidetolerance="10"
     inkscape:pageopacity="0"
     inkscape:pageshadow="2"
     inkscape:window-width="1920"
     inkscape:window-height="916"
     id="namedview73"
     showgrid="false"
     inkscape:zoom="2.0346667"
     inkscape:cx="187.5"
     inkscape:cy="128.52228"
     inkscape:window-x="0"
     inkscape:window-y="31"
     inkscape:window-maximized="1"
     inkscape:current-layer="svg71"
     inkscape:document-rotation="0" />
  <defs
     id="defs29">
    <clipPath
       id="clip-0">
      <path
         d="m 140,133 h 82 v 83 h -82 z m 0,0"
         clip-rule="nonzero"
         id="path2" />
    </clipPath>
    <clipPath
       id="clip-1">
      <path
         d="M 230.29297,204.29687 117.42969,232.14844 89.578125,119.28516 202.44141,91.433594 Z m 0,0"
         clip-rule="nonzero"
         id="path5" />
    </clipPath>
    <clipPath
       id="clip-2">
      <path
         d="M 230.29297,204.29687 117.42969,232.14844 89.578125,119.28516 202.44141,91.433594 Z m 0,0"
         clip-rule="nonzero"
         id="path8" />
    </clipPath>
    <clipPath
       id="clip-3">
      <path
         d="m 92,116 h 48 v 37 H 92 Z m 0,0"
         clip-rule="nonzero"
         id="path11" />
    </clipPath>
    <clipPath
       id="clip-4">
      <path
         d="M 230.29297,204.29687 117.42969,232.14844 89.578125,119.28516 202.44141,91.433594 Z m 0,0"
         clip-rule="nonzero"
         id="path14" />
    </clipPath>
    <clipPath
       id="clip-5">
      <path
         d="M 230.29297,204.29687 117.42969,232.14844 89.578125,119.28516 202.44141,91.433594 Z m 0,0"
         clip-rule="nonzero"
         id="path17" />
    </clipPath>
    <clipPath
       id="clip-6">
      <path
         d="m 131,140 h 21 v 20 h -21 z m 0,0"
         clip-rule="nonzero"
         id="path20" />
    </clipPath>
    <clipPath
       id="clip-7">
      <path
         d="M 230.29297,204.29687 117.42969,232.14844 89.578125,119.28516 202.44141,91.433594 Z m 0,0"
         clip-rule="nonzero"
         id="path23" />
    </clipPath>
    <clipPath
       id="clip-8">
      <path
         d="M 230.29297,204.29687 117.42969,232.14844 89.578125,119.28516 202.44141,91.433594 Z m 0,0"
         clip-rule="nonzero"
         id="path26" />
    </clipPath>
  </defs>
  <g
     id="g97"
     transform="translate(-77.048225,-87.564004)">
    <path
       fill="#ce781d"
       d="m 251.21094,112.97656 c 18.8164,12.46485 9.98828,58.89844 -19.72266,103.70703 -29.70703,44.8086 -69.05469,71.02344 -87.875,58.54688 -18.82422,-12.46875 -9.99219,-58.90235 19.72266,-103.71094 29.70703,-44.8125 69.05078,-71.02344 87.875,-58.54297"
       fill-opacity="1"
       fill-rule="nonzero"
       id="path31" />
    <path
       fill="#ce781d"
       d="M 231.48047,99.894531 123.89453,262.16406 143.61328,275.23047 251.21094,112.97656 231.48047,99.894531"
       fill-opacity="1"
       fill-rule="nonzero"
       id="path33" />
    <path
       fill="#fab220"
       d="m 231.48047,99.894531 c 18.8164,12.472659 9.98437,58.906249 -19.71875,103.710939 -29.71485,44.8164 -69.05078,71.02344 -87.86719,58.55859 -18.82031,-12.47656 -10,-58.91015 19.71484,-103.72265 29.71094,-44.80469 69.05469,-71.015629 87.8711,-58.546879"
       fill-opacity="1"
       fill-rule="nonzero"
       id="path35" />
    <path
       fill="#fddf40"
       d="m 210.83203,124.46875 c 13.43359,8.90625 7.13281,42.05078 -14.07422,74.03906 -21.21094,31.98438 -49.30078,50.69531 -62.73437,41.78906 -13.42578,-8.90234 -7.1211,-42.04687 14.08203,-74.03125 21.20312,-31.98828 49.29297,-50.69531 62.72656,-41.79687"
       fill-opacity="1"
       fill-rule="nonzero"
       id="path37" />
    <path
       fill="#fcd14c"
       d="m 143.875,263.97266 c -2.59375,-7.60938 -4.50391,-14.91797 -5.83984,-21.92188 1.23828,0.3125 2.55078,0.46484 3.92968,0.46484 6.25391,0 13.87891,-3.125 21.92578,-8.74609 1.99219,5.375 4.45704,10.44531 7.47657,15.03516 -9.70703,7.64453 -19.14063,12.89062 -27.49219,15.16797 m -2.88672,-85.94141 c 4.39453,-15.09766 10.58984,-27.38672 15.36719,-36.97266 1.78906,-2.21093 3.59375,-4.35156 5.41015,-6.42578 -0.76953,2.1875 -2.1914,8.69922 -3.39062,17.77735 -3.53516,4.26562 -6.98438,8.89843 -10.26953,13.85546 -2.59766,3.91797 -4.97656,7.85938 -7.11719,11.76563"
       fill-opacity="1"
       fill-rule="nonzero"
       id="path39" />
    <path
       fill="#feed7e"
       d="m 141.96484,242.51562 c -1.3789,0 -2.6914,-0.15234 -3.92968,-0.46484 -4.80469,-25.21875 -2.14063,-46.50391 2.95312,-64.01953 2.14063,-3.90625 4.51953,-7.84766 7.11719,-11.76563 3.28515,-4.95703 6.73437,-9.58984 10.26953,-13.85546 -2.74219,20.71093 -4.34375,54.78515 5.51562,81.35937 -8.04687,5.62109 -15.67187,8.74609 -21.92578,8.74609"
       fill-opacity="1"
       fill-rule="nonzero"
       id="path41" />
    <path
       fill="#fcd14c"
       d="m 182.78125,238.79297 c -2.95313,-4.58594 -5.4375,-9.41016 -7.51953,-14.38672 6.13672,-5.8125 12.26953,-12.84375 18.00781,-20.84375 2.71094,4.44141 5.90234,8.63281 9.65234,12.44531 -6.51562,8.54297 -13.30859,16.21094 -20.14062,22.78516 m -13.90234,-97.7461 c 1.73828,-9.17968 3.95703,-16.21093 5.8164,-19.78906 1.9375,-1.80078 3.86719,-3.50781 5.80078,-5.13672 -0.0547,0.71094 -1.0625,6.98047 -1.53125,16.32422 -3.32422,2.46875 -6.70703,5.35547 -10.08593,8.60156"
       fill-opacity="1"
       fill-rule="nonzero"
       id="path43" />
    <path
       fill="#feed7e"
       d="m 175.26172,224.40625 c -11.90625,-28.48047 -10.45703,-61.83594 -6.38281,-83.35938 3.3789,-3.24609 6.76171,-6.13281 10.08593,-8.60156 -0.91797,18.1875 0.19532,48.01172 14.30469,71.11719 -5.73828,8 -11.87109,15.03125 -18.00781,20.84375"
       fill-opacity="1"
       fill-rule="nonzero"
       id="path45" />
    <g
       clip-path="url(#clip-0)"
       id="g53">
      <g
         clip-path="url(#clip-1)"
         id="g51">
        <g
           clip-path="url(#clip-2)"
           id="g49">
          <path
             fill="#ce781d"
             d="m 187.55469,201.05859 c -14.64844,3.61719 -29.45313,-5.32812 -33.06641,-19.96875 -3.61719,-14.65234 5.32813,-29.46484 19.97656,-33.08203 14.64844,-3.61328 29.45313,5.33594 33.07032,19.99219 3.61328,14.64062 -5.33204,29.44531 -19.98047,33.05859 m 3.20703,12.99219 c 21.78515,-5.375 35.14062,-27.47656 29.76562,-49.25781 C 215.14844,143 193.04687,129.65234 171.26172,135.02734 149.47266,140.40625 136.125,162.5 141.5,184.29297 c 5.375,21.78125 27.47266,35.13672 49.26172,29.75781 z m 0,0"
             fill-opacity="1"
             fill-rule="nonzero"
             id="path47" />
        </g>
      </g>
    </g>
    <g
       clip-path="url(#clip-3)"
       id="g61">
      <g
         clip-path="url(#clip-4)"
         id="g59">
        <g
           clip-path="url(#clip-5)"
           id="g57">
          <path
             fill="#ce781d"
             d="m 101.48047,116.35938 c 2.77344,-0.6875 5.79687,-0.3125 8.43359,1.28125 l 23.96094,14.47656 c 5.27344,3.18359 6.96094,10.02343 3.77734,15.30859 -3.1914,5.27344 -10.03515,6.96094 -15.30859,3.77734 L 98.382812,136.72266 c -5.273437,-3.1836 -6.964843,-10.03125 -3.777343,-15.30469 1.59375,-2.64063 4.09375,-4.375 6.875001,-5.05859 z m 0,0"
             fill-opacity="1"
             fill-rule="nonzero"
             id="path55" />
        </g>
      </g>
    </g>
    <g
       clip-path="url(#clip-6)"
       id="g69">
      <g
         clip-path="url(#clip-7)"
         id="g67">
        <g
           clip-path="url(#clip-8)"
           id="g65">
          <path
             fill="#ce781d"
             d="m 144.89844,159.60937 -13.16016,-7.94531 6.91797,-11.45703 13.16016,7.94531 z m 0,0"
             fill-opacity="1"
             fill-rule="nonzero"
             id="path63" />
        </g>
      </g>
    </g>
  </g>
</svg>
