<?xml version="1.0" encoding="UTF-8"?><svg xmlns="http://www.w3.org/2000/svg" xmlns:xlink="http://www.w3.org/1999/xlink" contentScriptType="text/ecmascript" width="375" zoomAndPan="magnify" contentStyleType="text/css" viewBox="0 0 375 374.999991" height="374.999991" preserveAspectRatio="xMidYMid meet" version="1.0"><defs><filter x="0%" y="0%" width="100%" xmlns:xlink="http://www.w3.org/1999/xlink" xlink:type="simple" xlink:actuate="onLoad" height="100%" id="filter-remove-color" xlink:show="other"><feColorMatrix values="0 0 0 0 1 0 0 0 0 1 0 0 0 0 1 0 0 0 1 0" color-interpolation-filters="sRGB"/></filter><clipPath id="clip-0"><path d="M 140 162 L 179 162 L 179 217 L 140 217 Z M 140 162 " clip-rule="nonzero"/></clipPath><clipPath id="clip-1"><path d="M 229.054688 207.042969 L 112.519531 246.394531 L 72.207031 127.019531 L 188.742188 87.664062 Z M 229.054688 207.042969 " clip-rule="nonzero"/></clipPath><clipPath id="clip-2"><path d="M 229.054688 207.042969 L 112.519531 246.394531 L 72.207031 127.019531 L 188.742188 87.664062 Z M 229.054688 207.042969 " clip-rule="nonzero"/></clipPath><mask id="mask-0"><g filter="url(#filter-remove-color)"><rect x="-37.5" width="450" fill="rgb(0%, 0%, 0%)" y="-37.499999" height="449.999989" fill-opacity="0.298"/></g></mask><clipPath id="clip-3"><path d="M 5 5 L 38.800781 5 L 38.800781 47 L 5 47 Z M 5 5 " clip-rule="nonzero"/></clipPath><clipPath id="clip-4"><path d="M 89.054688 45.042969 L -27.480469 84.394531 L -67.792969 -34.980469 L 48.742188 -74.335938 Z M 89.054688 45.042969 " clip-rule="nonzero"/></clipPath><clipPath id="clip-5"><path d="M 89.054688 45.042969 L -27.480469 84.394531 L -67.792969 -34.980469 L 48.742188 -74.335938 Z M 89.054688 45.042969 " clip-rule="nonzero"/></clipPath><clipPath id="clip-6"><rect x="0" width="39" y="0" height="55"/></clipPath><clipPath id="clip-7"><path d="M 73 125 L 218 125 L 218 223 L 73 223 Z M 73 125 " clip-rule="nonzero"/></clipPath><clipPath id="clip-8"><path d="M 229.054688 207.042969 L 112.519531 246.394531 L 72.207031 127.019531 L 188.742188 87.664062 Z M 229.054688 207.042969 " clip-rule="nonzero"/></clipPath><clipPath id="clip-9"><path d="M 229.054688 207.042969 L 112.519531 246.394531 L 72.207031 127.019531 L 188.742188 87.664062 Z M 229.054688 207.042969 " clip-rule="nonzero"/></clipPath></defs><rect x="-37.5" width="450" fill="rgb(100%, 100%, 100%)" y="-37.499999" height="449.999989" fill-opacity="1"/><rect x="-37.5" width="450" fill="rgb(100%, 100%, 100%)" y="-37.499999" height="449.999989" fill-opacity="1"/><rect x="-37.5" width="450" fill="rgb(100%, 94.898987%, 60.389709%)" y="-37.499999" height="449.999989" fill-opacity="1"/><path fill="rgb(80.778503%, 47.059631%, 11.369324%)" d="M 251.210938 112.976562 C 270.027344 125.441406 261.199219 171.875 231.488281 216.683594 C 201.78125 261.492188 162.433594 287.707031 143.613281 275.230469 C 124.789062 262.761719 133.621094 216.328125 163.335938 171.519531 C 193.042969 126.707031 232.386719 100.496094 251.210938 112.976562 " fill-opacity="1" fill-rule="nonzero"/><path fill="rgb(80.778503%, 47.059631%, 11.369324%)" d="M 231.480469 99.894531 L 123.894531 262.164062 L 143.613281 275.230469 L 251.210938 112.976562 L 231.480469 99.894531 " fill-opacity="1" fill-rule="nonzero"/><path fill="rgb(98.039246%, 69.799805%, 12.548828%)" d="M 231.480469 99.894531 C 250.296875 112.367188 241.464844 158.800781 211.761719 203.605469 C 182.046875 248.421875 142.710938 274.628906 123.894531 262.164062 C 105.074219 249.6875 113.894531 203.253906 143.609375 158.441406 C 173.320312 113.636719 212.664062 87.425781 231.480469 99.894531 " fill-opacity="1" fill-rule="nonzero"/><path fill="rgb(99.21875%, 87.449646%, 25.099182%)" d="M 210.832031 124.46875 C 224.265625 133.375 217.964844 166.519531 196.757812 198.507812 C 175.546875 230.492188 147.457031 249.203125 134.023438 240.296875 C 120.597656 231.394531 126.902344 198.25 148.105469 166.265625 C 169.308594 134.277344 197.398438 115.570312 210.832031 124.46875 " fill-opacity="1" fill-rule="nonzero"/><path fill="rgb(98.81897%, 81.959534%, 29.798889%)" d="M 143.875 263.972656 C 141.28125 256.363281 139.371094 249.054688 138.035156 242.050781 C 139.273438 242.363281 140.585938 242.515625 141.964844 242.515625 C 148.21875 242.515625 155.84375 239.390625 163.890625 233.769531 C 165.882812 239.144531 168.347656 244.214844 171.367188 248.804688 C 161.660156 256.449219 152.226562 261.695312 143.875 263.972656 M 140.988281 178.03125 C 145.382812 162.933594 151.578125 150.644531 156.355469 141.058594 C 158.144531 138.847656 159.949219 136.707031 161.765625 134.632812 C 160.996094 136.820312 159.574219 143.332031 158.375 152.410156 C 154.839844 156.675781 151.390625 161.308594 148.105469 166.265625 C 145.507812 170.183594 143.128906 174.125 140.988281 178.03125 " fill-opacity="1" fill-rule="nonzero"/><path fill="rgb(99.609375%, 92.939758%, 49.409485%)" d="M 141.964844 242.515625 C 140.585938 242.515625 139.273438 242.363281 138.035156 242.050781 C 133.230469 216.832031 135.894531 195.546875 140.988281 178.03125 C 143.128906 174.125 145.507812 170.183594 148.105469 166.265625 C 151.390625 161.308594 154.839844 156.675781 158.375 152.410156 C 155.632812 173.121094 154.03125 207.195312 163.890625 233.769531 C 155.84375 239.390625 148.21875 242.515625 141.964844 242.515625 " fill-opacity="1" fill-rule="nonzero"/><path fill="rgb(98.81897%, 81.959534%, 29.798889%)" d="M 182.78125 238.792969 C 179.828125 234.207031 177.34375 229.382812 175.261719 224.40625 C 181.398438 218.59375 187.53125 211.5625 193.269531 203.5625 C 195.980469 208.003906 199.171875 212.195312 202.921875 216.007812 C 196.40625 224.550781 189.613281 232.21875 182.78125 238.792969 M 168.878906 141.046875 C 170.617188 131.867188 172.835938 124.835938 174.695312 121.257812 C 176.632812 119.457031 178.5625 117.75 180.496094 116.121094 C 180.441406 116.832031 179.433594 123.101562 178.964844 132.445312 C 175.640625 134.914062 172.257812 137.800781 168.878906 141.046875 " fill-opacity="1" fill-rule="nonzero"/><path fill="rgb(99.609375%, 92.939758%, 49.409485%)" d="M 175.261719 224.40625 C 163.355469 195.925781 164.804688 162.570312 168.878906 141.046875 C 172.257812 137.800781 175.640625 134.914062 178.964844 132.445312 C 178.046875 150.632812 179.160156 180.457031 193.269531 203.5625 C 187.53125 211.5625 181.398438 218.59375 175.261719 224.40625 " fill-opacity="1" fill-rule="nonzero"/><g clip-path="url(#clip-0)"><g clip-path="url(#clip-1)"><g clip-path="url(#clip-2)"><g mask="url(#mask-0)"><g transform="matrix(1, 0, 0, 1, 140, 162)"><g id="source-5" clip-path="url(#clip-6)"><g clip-path="url(#clip-3)"><g clip-path="url(#clip-4)"><g clip-path="url(#clip-5)"><path fill="rgb(98.039246%, 69.799805%, 12.548828%)" d="M 38.632812 46.203125 C 28.527344 46.625 18.199219 41.300781 12.269531 31.523438 C 7.214844 23.183594 6.511719 13.511719 9.542969 5.410156 C 4.539062 13.824219 4.21875 24.648438 9.644531 33.597656 C 15.820312 43.78125 27.589844 48.496094 38.632812 46.203125 Z M 38.632812 46.203125 " fill-opacity="1" fill-rule="nonzero"/></g></g></g></g></g></g></g></g></g><g clip-path="url(#clip-7)"><g clip-path="url(#clip-8)"><g clip-path="url(#clip-9)"><path fill="rgb(80.778503%, 47.059631%, 11.369324%)" d="M 76.488281 133.964844 L 135.851562 163.316406 C 131.761719 172.6875 131.003906 183.542969 134.523438 193.964844 C 142.046875 216.238281 166.308594 228.238281 188.605469 220.707031 C 210.902344 213.175781 222.925781 188.925781 215.402344 166.652344 C 207.878906 144.375 183.617188 132.378906 161.320312 139.910156 C 152.628906 142.84375 145.5 148.316406 140.480469 155.222656 L 80.621094 125.625 C 79.472656 125.054688 78.195312 125.007812 77.066406 125.386719 C 75.9375 125.769531 74.953125 126.582031 74.382812 127.730469 C 73.242188 130.035156 74.183594 132.824219 76.488281 133.964844 Z M 206.746094 169.574219 C 212.660156 187.082031 203.210938 206.144531 185.683594 212.0625 C 168.15625 217.984375 149.085938 208.554688 143.171875 191.042969 C 137.257812 173.53125 146.707031 154.472656 164.234375 148.550781 C 181.761719 142.632812 200.835938 152.0625 206.746094 169.574219 Z M 206.746094 169.574219 " fill-opacity="1" fill-rule="nonzero"/></g></g></g></svg>