<?xml version="1.0" encoding="UTF-8"?><svg xmlns="http://www.w3.org/2000/svg" xmlns:xlink="http://www.w3.org/1999/xlink" contentScriptType="text/ecmascript" width="375" zoomAndPan="magnify" contentStyleType="text/css" viewBox="0 0 375 374.999991" height="374.999991" preserveAspectRatio="xMidYMid meet" version="1.0"><defs><clipPath id="clip-0"><path d="M 140 133 L 222 133 L 222 216 L 140 216 Z M 140 133 " clip-rule="nonzero"/></clipPath><clipPath id="clip-1"><path d="M 230.292969 204.296875 L 117.429688 232.148438 L 89.578125 119.285156 L 202.441406 91.433594 Z M 230.292969 204.296875 " clip-rule="nonzero"/></clipPath><clipPath id="clip-2"><path d="M 230.292969 204.296875 L 117.429688 232.148438 L 89.578125 119.285156 L 202.441406 91.433594 Z M 230.292969 204.296875 " clip-rule="nonzero"/></clipPath><clipPath id="clip-3"><path d="M 92 116 L 140 116 L 140 153 L 92 153 Z M 92 116 " clip-rule="nonzero"/></clipPath><clipPath id="clip-4"><path d="M 230.292969 204.296875 L 117.429688 232.148438 L 89.578125 119.285156 L 202.441406 91.433594 Z M 230.292969 204.296875 " clip-rule="nonzero"/></clipPath><clipPath id="clip-5"><path d="M 230.292969 204.296875 L 117.429688 232.148438 L 89.578125 119.285156 L 202.441406 91.433594 Z M 230.292969 204.296875 " clip-rule="nonzero"/></clipPath><clipPath id="clip-6"><path d="M 131 140 L 152 140 L 152 160 L 131 160 Z M 131 140 " clip-rule="nonzero"/></clipPath><clipPath id="clip-7"><path d="M 230.292969 204.296875 L 117.429688 232.148438 L 89.578125 119.285156 L 202.441406 91.433594 Z M 230.292969 204.296875 " clip-rule="nonzero"/></clipPath><clipPath id="clip-8"><path d="M 230.292969 204.296875 L 117.429688 232.148438 L 89.578125 119.285156 L 202.441406 91.433594 Z M 230.292969 204.296875 " clip-rule="nonzero"/></clipPath></defs><path fill="rgb(80.778503%, 47.059631%, 11.369324%)" d="M 251.210938 112.976562 C 270.027344 125.441406 261.199219 171.875 231.488281 216.683594 C 201.78125 261.492188 162.433594 287.707031 143.613281 275.230469 C 124.789062 262.761719 133.621094 216.328125 163.335938 171.519531 C 193.042969 126.707031 232.386719 100.496094 251.210938 112.976562 " fill-opacity="1" fill-rule="nonzero"/><path fill="rgb(80.778503%, 47.059631%, 11.369324%)" d="M 231.480469 99.894531 L 123.894531 262.164062 L 143.613281 275.230469 L 251.210938 112.976562 L 231.480469 99.894531 " fill-opacity="1" fill-rule="nonzero"/><path fill="rgb(98.039246%, 69.799805%, 12.548828%)" d="M 231.480469 99.894531 C 250.296875 112.367188 241.464844 158.800781 211.761719 203.605469 C 182.046875 248.421875 142.710938 274.628906 123.894531 262.164062 C 105.074219 249.6875 113.894531 203.253906 143.609375 158.441406 C 173.320312 113.636719 212.664062 87.425781 231.480469 99.894531 " fill-opacity="1" fill-rule="nonzero"/><path fill="rgb(99.21875%, 87.449646%, 25.099182%)" d="M 210.832031 124.46875 C 224.265625 133.375 217.964844 166.519531 196.757812 198.507812 C 175.546875 230.492188 147.457031 249.203125 134.023438 240.296875 C 120.597656 231.394531 126.902344 198.25 148.105469 166.265625 C 169.308594 134.277344 197.398438 115.570312 210.832031 124.46875 " fill-opacity="1" fill-rule="nonzero"/><path fill="rgb(98.81897%, 81.959534%, 29.798889%)" d="M 143.875 263.972656 C 141.28125 256.363281 139.371094 249.054688 138.035156 242.050781 C 139.273438 242.363281 140.585938 242.515625 141.964844 242.515625 C 148.21875 242.515625 155.84375 239.390625 163.890625 233.769531 C 165.882812 239.144531 168.347656 244.214844 171.367188 248.804688 C 161.660156 256.449219 152.226562 261.695312 143.875 263.972656 M 140.988281 178.03125 C 145.382812 162.933594 151.578125 150.644531 156.355469 141.058594 C 158.144531 138.847656 159.949219 136.707031 161.765625 134.632812 C 160.996094 136.820312 159.574219 143.332031 158.375 152.410156 C 154.839844 156.675781 151.390625 161.308594 148.105469 166.265625 C 145.507812 170.183594 143.128906 174.125 140.988281 178.03125 " fill-opacity="1" fill-rule="nonzero"/><path fill="rgb(99.609375%, 92.939758%, 49.409485%)" d="M 141.964844 242.515625 C 140.585938 242.515625 139.273438 242.363281 138.035156 242.050781 C 133.230469 216.832031 135.894531 195.546875 140.988281 178.03125 C 143.128906 174.125 145.507812 170.183594 148.105469 166.265625 C 151.390625 161.308594 154.839844 156.675781 158.375 152.410156 C 155.632812 173.121094 154.03125 207.195312 163.890625 233.769531 C 155.84375 239.390625 148.21875 242.515625 141.964844 242.515625 " fill-opacity="1" fill-rule="nonzero"/><path fill="rgb(98.81897%, 81.959534%, 29.798889%)" d="M 182.78125 238.792969 C 179.828125 234.207031 177.34375 229.382812 175.261719 224.40625 C 181.398438 218.59375 187.53125 211.5625 193.269531 203.5625 C 195.980469 208.003906 199.171875 212.195312 202.921875 216.007812 C 196.40625 224.550781 189.613281 232.21875 182.78125 238.792969 M 168.878906 141.046875 C 170.617188 131.867188 172.835938 124.835938 174.695312 121.257812 C 176.632812 119.457031 178.5625 117.75 180.496094 116.121094 C 180.441406 116.832031 179.433594 123.101562 178.964844 132.445312 C 175.640625 134.914062 172.257812 137.800781 168.878906 141.046875 " fill-opacity="1" fill-rule="nonzero"/><path fill="rgb(99.609375%, 92.939758%, 49.409485%)" d="M 175.261719 224.40625 C 163.355469 195.925781 164.804688 162.570312 168.878906 141.046875 C 172.257812 137.800781 175.640625 134.914062 178.964844 132.445312 C 178.046875 150.632812 179.160156 180.457031 193.269531 203.5625 C 187.53125 211.5625 181.398438 218.59375 175.261719 224.40625 " fill-opacity="1" fill-rule="nonzero"/><g clip-path="url(#clip-0)"><g clip-path="url(#clip-1)"><g clip-path="url(#clip-2)"><path fill="rgb(80.778503%, 47.059631%, 11.369324%)" d="M 187.554688 201.058594 C 172.90625 204.675781 158.101562 195.730469 154.488281 181.089844 C 150.871094 166.4375 159.816406 151.625 174.464844 148.007812 C 189.113281 144.394531 203.917969 153.34375 207.535156 168 C 211.148438 182.640625 202.203125 197.445312 187.554688 201.058594 M 190.761719 214.050781 C 212.546875 208.675781 225.902344 186.574219 220.527344 164.792969 C 215.148438 143 193.046875 129.652344 171.261719 135.027344 C 149.472656 140.40625 136.125 162.5 141.5 184.292969 C 146.875 206.074219 168.972656 219.429688 190.761719 214.050781 Z M 190.761719 214.050781 " fill-opacity="1" fill-rule="nonzero"/></g></g></g><g clip-path="url(#clip-3)"><g clip-path="url(#clip-4)"><g clip-path="url(#clip-5)"><path fill="rgb(80.778503%, 47.059631%, 11.369324%)" d="M 101.480469 116.359375 C 104.253906 115.671875 107.277344 116.046875 109.914062 117.640625 L 133.875 132.117188 C 139.148438 135.300781 140.835938 142.140625 137.652344 147.425781 C 134.460938 152.699219 127.617188 154.386719 122.34375 151.203125 L 98.382812 136.722656 C 93.109375 133.539062 91.417969 126.691406 94.605469 121.417969 C 96.199219 118.777344 98.699219 117.042969 101.480469 116.359375 Z M 101.480469 116.359375 " fill-opacity="1" fill-rule="nonzero"/></g></g></g><g clip-path="url(#clip-6)"><g clip-path="url(#clip-7)"><g clip-path="url(#clip-8)"><path fill="rgb(80.778503%, 47.059631%, 11.369324%)" d="M 144.898438 159.609375 L 131.738281 151.664062 L 138.65625 140.207031 L 151.816406 148.152344 Z M 144.898438 159.609375 " fill-opacity="1" fill-rule="nonzero"/></g></g></g></svg>